<svg xmlns="http://www.w3.org/2000/svg" viewBox="0 0 128 128"><defs><style>.cls-1{fill:#96de9b;}</style></defs><g id="Calque_2" data-name="Calque 2"><g id="Calque_1-2" data-name="Calque 1"><path class="cls-1" d="M65.78,68.43H56.26V80.08h9.38a6,6,0,0,0,4.22-1.53,5.4,5.4,0,0,0,1.67-4.22A5.79,5.79,0,0,0,69.93,70,5.61,5.61,0,0,0,65.78,68.43Z"/><path class="cls-1" d="M68.73,57.59a5.07,5.07,0,0,0,1.64-4.11,5.18,5.18,0,0,0-1.64-4.14,6.35,6.35,0,0,0-4.33-1.42H56.26V59H64.4A6.44,6.44,0,0,0,68.73,57.59Z"/><path class="cls-1" d="M93.64,0H34.36A34.36,34.36,0,0,0,0,34.36V93.64A34.36,34.36,0,0,0,34.36,128H93.64A34.36,34.36,0,0,0,128,93.64V34.36A34.36,34.36,0,0,0,93.64,0ZM79.71,85.93c-3,2.41-7.14,3.61-12.47,3.61H43.81V38.46H66q7.78,0,12.41,3.79A11.9,11.9,0,0,1,83,51.85q0,8.65-10.11,11.71a12.81,12.81,0,0,1,8.22,4.29,12.5,12.5,0,0,1,3,8.37A11.8,11.8,0,0,1,79.71,85.93Z"/></g></g></svg>