<svg xmlns="http://www.w3.org/2000/svg" viewBox="0 0 128 128"><defs><style>.cls-1{fill:#ffa7a7;}</style></defs><g id="Calque_2" data-name="Calque 2"><g id="Calque_1-2" data-name="Calque 1"><path class="cls-1" d="M93.64,0H34.36A34.36,34.36,0,0,0,0,34.36V93.64A34.36,34.36,0,0,0,34.36,128H93.64A34.36,34.36,0,0,0,128,93.64V34.36A34.36,34.36,0,0,0,93.64,0ZM55.05,74.69q3.68,4,10.08,4a9.77,9.77,0,0,0,9.31-5.61H89.28A23.51,23.51,0,0,1,80,85.61a26.21,26.21,0,0,1-15.13,4.51,25.64,25.64,0,0,1-18.59-7.39q-7.6-7.38-7.6-18.73t7.6-18.73a25.68,25.68,0,0,1,18.59-7.39A26.28,26.28,0,0,1,80,42.39a23.51,23.51,0,0,1,9.24,12.52H74.44a9.77,9.77,0,0,0-9.31-5.61q-6.4,0-10.08,4T51.38,64Q51.38,70.69,55.05,74.69Z"/></g></g></svg>